<?xml version="1.0" encoding="UTF-8" standalone="no"?>
<!-- Created with Inkscape (http://www.inkscape.org/) -->

<svg
   xmlns:dc="http://purl.org/dc/elements/1.1/"
   xmlns:cc="http://creativecommons.org/ns#"
   xmlns:rdf="http://www.w3.org/1999/02/22-rdf-syntax-ns#"
   xmlns:svg="http://www.w3.org/2000/svg"
   xmlns="http://www.w3.org/2000/svg"
   xmlns:sodipodi="http://sodipodi.sourceforge.net/DTD/sodipodi-0.dtd"
   xmlns:inkscape="http://www.inkscape.org/namespaces/inkscape"
   width="49.152203mm"
   height="28.807034mm"
   viewBox="0 0 174.16135 102.07217"
   id="svg6556"
   version="1.1"
   inkscape:version="0.91 r13725"
   sodipodi:docname="big_next_arrow.svg">
  <defs
     id="defs6558">
    <clipPath
       clipPathUnits="userSpaceOnUse"
       id="clipPath824">
      <path
         d="m 0,4800 3072,0 L 3072,0 0,0 0,4800 Z"
         id="path826"
         inkscape:connector-curvature="0"
         style="clip-rule:evenodd" />
    </clipPath>
    <clipPath
       clipPathUnits="userSpaceOnUse"
       id="clipPath830">
      <path
         d="m 1469.105,2255.149 c 5.24,5.361 12.523,5.781 18.934,0 l 46.936,-45.014 46.937,45.014 c 6.396,5.781 13.708,5.361 18.904,0 5.24,-5.345 4.894,-14.384 0,-19.399 -4.88,-5.015 -56.396,-54.083 -56.396,-54.083 -2.488,-2.555 -5.902,-3.996 -9.467,-3.996 -3.566,0 -6.98,1.441 -9.467,3.996 -2.487,2.554 -51.501,49.053 -56.396,54.083 -4.895,5.03 -5.24,14.054 0,19.399 l 0.015,0 z"
         id="path832"
         inkscape:connector-curvature="0"
         style="clip-rule:evenodd" />
    </clipPath>
    <clipPath
       clipPathUnits="userSpaceOnUse"
       id="clipPath836">
      <path
         d="m 0,0 3072,0 0,4800 L 0,4800 0,0 Z"
         id="path838"
         inkscape:connector-curvature="0" />
    </clipPath>
  </defs>
  <sodipodi:namedview
     id="base"
     pagecolor="#ffffff"
     bordercolor="#666666"
     borderopacity="1.0"
     inkscape:pageopacity="0.0"
     inkscape:pageshadow="2"
     inkscape:zoom="0.35"
     inkscape:cx="90.652114"
     inkscape:cy="542.46465"
     inkscape:document-units="px"
     inkscape:current-layer="layer1"
     showgrid="false"
     fit-margin-top="0"
     fit-margin-left="0"
     fit-margin-right="0"
     fit-margin-bottom="0"
     inkscape:window-width="1366"
     inkscape:window-height="716"
     inkscape:window-x="0"
     inkscape:window-y="0"
     inkscape:window-maximized="1" />
  <metadata
     id="metadata6561">
    <rdf:RDF>
      <cc:Work
         rdf:about="">
        <dc:format>image/svg+xml</dc:format>
        <dc:type
           rdf:resource="http://purl.org/dc/dcmitype/StillImage" />
        <dc:title></dc:title>
      </cc:Work>
    </rdf:RDF>
  </metadata>
  <g
     inkscape:label="Layer 1"
     inkscape:groupmode="layer"
     id="layer1"
     transform="translate(158.50926,-972.75468)">
    <g
       transform="matrix(1.25,0,0,-1.25,-1990.1196,3796.9156)"
       id="g820">
      <g
         id="g822"
         clip-path="url(#clipPath824)">
        <g
           id="g828"
           clip-path="url(#clipPath830)">
          <g
             id="g834"
             clip-path="url(#clipPath836)">
            <path
               d="m 1450.288,2274.329 169.329,0 0,-111.658 -169.329,0 0,111.658 z"
               style="fill:#222222;fill-opacity:1;fill-rule:nonzero;stroke:none"
               id="path840"
               inkscape:connector-curvature="0" />
          </g>
        </g>
      </g>
    </g>
  </g>
</svg>
