<?xml version="1.0" encoding="utf-8"?>
<!-- Generator: Adobe Illustrator 16.0.0, SVG Export Plug-In . SVG Version: 6.00 Build 0)  -->
<!DOCTYPE svg PUBLIC "-//W3C//DTD SVG 1.1//EN" "http://www.w3.org/Graphics/SVG/1.1/DTD/svg11.dtd">
<svg version="1.1" id="Lager_1" xmlns="http://www.w3.org/2000/svg" xmlns:xlink="http://www.w3.org/1999/xlink" x="0px" y="0px"
	 width="80px" height="80px" viewBox="0 0 80 80" enable-background="new 0 0 80 80" xml:space="preserve">
<g>
	<g>
		<g>
			<path d="M21.91,29.18v27.166h35.524V29.18H21.91z M30.116,42.13c-0.096,0.043-0.194,0.086-0.293,0.132
				c-0.414,0.215-0.201,0.381,1.32,1.397c0.06,0.041,0.108,0.056,0.182,0.056c0.074,0,2.04,0,2.04,0s0,4.981,0,5.076
				c0,0.055-0.029,0.106-0.096,0.079c-0.721-0.242-1.202-0.962-1.202-0.962s-0.227,0.952-0.888,1.141
				c-0.66,0.19-1.451-0.886-2.457-2.564c0,0-1.163,0.333-2.904,1.078c-0.082,0.035-0.156,0.007-0.19-0.044
				c-0.036-0.051-0.583-0.835-0.616-0.879c-0.118-0.167-0.097-0.411,0.069-0.568c2.051-1.94,2.875-2.938,3.181-3.356
				c0.093-0.124-0.002-0.146-0.218-0.153c-1.003-0.034-1.595,0.157-2.331,1.002c-0.046,0.053-0.282-0.019-0.232-0.141
				c0.261-0.654,0.303-0.692,0.264-0.836c-0.042-0.141-0.189-0.35-0.683-0.358c-0.102-0.002-0.117-0.257-0.019-0.27
				c0.568-0.071,0.923-0.221,1.008-0.408c0.062-0.134,0.036-0.582,0.04-0.659c0.004-0.109,0.215-0.143,0.249-0.05
				c0.033,0.093,0.238,0.632,0.453,0.714c0.215,0.084,1.204,0.376,1.442,0.324c0.237-0.049,0.287-0.251,0.264-0.386
				c-0.069-0.404-0.207-0.746-0.405-0.872c-0.195-0.124-1.144-0.725-1.195-0.77c-0.05-0.044,0.02-0.205,0.086-0.192
				c0.064,0.016,0.999,0.311,1.101,0.326c0.1,0.015,0.219-0.066,0.256-0.162c0.035-0.093,0.188-0.694,0.213-0.775
				c0.025-0.082,0.223-0.067,0.23,0.02c0.011,0.086-0.027,0.86,0.001,0.957c0.031,0.095,0.231,0.897,0.487,1.157
				c0.256,0.262,0.397,0.288,0.812,0.117c0.418-0.172,2.414-1.313,2.956-1.937c0.136-0.153,0.284-0.608-0.603-0.938
				c-0.773-0.289-4.549-1.481-6.893,1.23c-0.041,0.048-0.226-0.038-0.189-0.106c0.466-0.868,0.516-1.014,0.446-1.205
				c-0.071-0.191-0.187-0.368-0.883-0.419c-0.065-0.007-0.089-0.193-0.01-0.212c0.838-0.211,1.289-0.325,1.289-0.498
				c0-0.17-0.788-0.903-0.841-0.947c-0.055-0.045,0.079-0.194,0.159-0.151c0.398,0.209,1.13,0.527,1.496,0.286
				c0.366-0.239,0.219-1.033,0.197-1.16c-0.011-0.055,0.184-0.13,0.219-0.043c0.035,0.083,0.496,1.324,0.872,1.679
				c0.376,0.356,1.255,0.296,1.475-0.115c0.222-0.41-0.342-1.34-0.562-1.56c-0.049-0.05,0.066-0.197,0.116-0.17
				c0.05,0.026,0.468,0.323,0.698,0.682c0.231,0.355,0.661,1.235,1.032,1.445c0.372,0.21,1.385,0.519,1.544,0.251
				c0.161-0.265-0.426-1.079-0.461-1.119c-0.034-0.041,0.104-0.209,0.156-0.17c0.902,0.687,1.785,2.154,1.785,2.987
				C34.084,39.886,32.649,40.975,30.116,42.13z M40.487,42.13c-0.098,0.043-0.194,0.086-0.294,0.132
				c-0.414,0.215-0.201,0.381,1.323,1.397c0.057,0.041,0.107,0.056,0.179,0.056c0.073,0,2.042,0,2.042,0s0,4.981,0,5.076
				c0,0.055-0.031,0.106-0.101,0.079c-0.716-0.242-1.195-0.962-1.195-0.962s-0.228,0.952-0.89,1.141
				c-0.661,0.19-1.452-0.886-2.458-2.564c0,0-1.161,0.333-2.902,1.078c-0.082,0.035-0.157,0.007-0.194-0.044
				c-0.035-0.051-0.583-0.835-0.616-0.879c-0.118-0.167-0.096-0.411,0.071-0.568c2.05-1.94,2.873-2.938,3.181-3.356
				c0.091-0.124-0.002-0.146-0.219-0.153c-1.002-0.034-1.596,0.157-2.33,1.002c-0.045,0.053-0.282-0.019-0.23-0.141
				c0.258-0.654,0.302-0.692,0.262-0.836c-0.041-0.141-0.19-0.35-0.684-0.358c-0.102-0.002-0.118-0.257-0.019-0.27
				c0.567-0.071,0.924-0.221,1.012-0.408c0.061-0.134,0.033-0.582,0.038-0.659c0.003-0.109,0.215-0.143,0.248-0.05
				c0.033,0.093,0.238,0.632,0.454,0.714c0.215,0.084,1.205,0.376,1.442,0.324c0.236-0.049,0.286-0.251,0.266-0.386
				c-0.071-0.404-0.21-0.746-0.405-0.872c-0.196-0.124-1.146-0.725-1.196-0.77c-0.05-0.044,0.02-0.205,0.085-0.192
				c0.065,0.016,1.002,0.311,1.101,0.326c0.102,0.015,0.22-0.066,0.256-0.162c0.036-0.093,0.189-0.694,0.216-0.775
				c0.023-0.082,0.219-0.067,0.229,0.02c0.011,0.086-0.027,0.86,0.003,0.957c0.03,0.095,0.229,0.897,0.486,1.157
				c0.255,0.262,0.396,0.288,0.812,0.117c0.415-0.172,2.411-1.313,2.955-1.937c0.134-0.153,0.284-0.608-0.602-0.938
				c-0.773-0.289-4.552-1.481-6.893,1.23c-0.042,0.048-0.228-0.038-0.19-0.106c0.466-0.868,0.516-1.014,0.446-1.205
				c-0.069-0.191-0.186-0.368-0.883-0.419c-0.067-0.007-0.089-0.193-0.009-0.212c0.838-0.211,1.29-0.325,1.29-0.498
				c0-0.17-0.788-0.903-0.843-0.947c-0.055-0.045,0.077-0.194,0.161-0.151c0.395,0.209,1.128,0.527,1.496,0.286
				c0.365-0.239,0.217-1.033,0.193-1.16c-0.009-0.055,0.187-0.13,0.221-0.043c0.037,0.083,0.498,1.324,0.875,1.679
				c0.375,0.356,1.253,0.296,1.475-0.115c0.22-0.41-0.34-1.34-0.561-1.56c-0.052-0.05,0.063-0.197,0.115-0.17
				c0.049,0.026,0.468,0.323,0.699,0.682c0.231,0.355,0.66,1.235,1.033,1.445c0.371,0.21,1.383,0.519,1.544,0.251
				c0.158-0.265-0.427-1.079-0.461-1.119c-0.037-0.041,0.101-0.209,0.154-0.17c0.904,0.687,1.785,2.154,1.785,2.987
				C44.454,39.886,43.018,40.975,40.487,42.13z M50.856,42.13c-0.098,0.043-0.194,0.086-0.293,0.132
				c-0.415,0.215-0.202,0.381,1.322,1.397c0.057,0.041,0.105,0.056,0.181,0.056c0.074,0,2.039,0,2.039,0s0,4.981,0,5.076
				c0,0.055-0.029,0.106-0.099,0.079c-0.72-0.242-1.197-0.962-1.197-0.962s-0.229,0.952-0.888,1.141
				c-0.661,0.19-1.454-0.886-2.459-2.564c0,0-1.162,0.333-2.903,1.078c-0.081,0.035-0.156,0.007-0.189-0.044
				c-0.035-0.051-0.586-0.835-0.617-0.879c-0.119-0.167-0.097-0.411,0.066-0.568c2.055-1.94,2.88-2.938,3.182-3.356
				c0.094-0.124-0.001-0.146-0.216-0.153c-1.001-0.034-1.595,0.157-2.333,1.002c-0.045,0.053-0.28-0.019-0.229-0.141
				c0.261-0.654,0.302-0.692,0.265-0.836c-0.041-0.141-0.191-0.35-0.686-0.358c-0.104-0.002-0.117-0.257-0.019-0.27
				c0.566-0.071,0.924-0.221,1.009-0.408c0.062-0.134,0.037-0.582,0.041-0.659c0.006-0.109,0.215-0.143,0.248-0.05
				c0.032,0.093,0.238,0.632,0.454,0.714c0.213,0.084,1.203,0.376,1.438,0.324c0.24-0.049,0.29-0.251,0.268-0.386
				c-0.071-0.404-0.21-0.746-0.402-0.872c-0.198-0.124-1.148-0.725-1.198-0.77c-0.052-0.044,0.019-0.205,0.088-0.192
				c0.064,0.016,0.996,0.311,1.096,0.326c0.104,0.015,0.224-0.066,0.257-0.162c0.037-0.093,0.188-0.694,0.215-0.775
				c0.025-0.082,0.221-0.067,0.231,0.02c0.01,0.086-0.03,0.86,0.001,0.957c0.031,0.095,0.229,0.897,0.486,1.157
				c0.256,0.262,0.396,0.288,0.813,0.117c0.416-0.172,2.412-1.313,2.953-1.937c0.135-0.153,0.286-0.608-0.603-0.938
				c-0.773-0.289-4.549-1.481-6.892,1.23c-0.04,0.048-0.226-0.038-0.189-0.106c0.467-0.868,0.517-1.014,0.447-1.205
				c-0.071-0.191-0.188-0.368-0.885-0.419c-0.062-0.007-0.09-0.193-0.011-0.212c0.84-0.211,1.29-0.325,1.29-0.498
				c0-0.17-0.788-0.903-0.842-0.947c-0.055-0.045,0.081-0.194,0.16-0.151c0.395,0.209,1.128,0.527,1.495,0.286
				c0.365-0.239,0.217-1.033,0.193-1.16c-0.009-0.055,0.186-0.13,0.222-0.043c0.033,0.083,0.496,1.324,0.873,1.679
				c0.377,0.356,1.254,0.296,1.474-0.115c0.224-0.41-0.34-1.34-0.56-1.56c-0.05-0.05,0.063-0.197,0.114-0.17
				c0.049,0.026,0.468,0.323,0.699,0.682c0.231,0.355,0.662,1.235,1.032,1.445c0.371,0.21,1.385,0.519,1.543,0.251
				c0.162-0.265-0.425-1.079-0.458-1.119c-0.035-0.041,0.104-0.209,0.155-0.17c0.9,0.687,1.785,2.154,1.785,2.987
				C54.824,39.886,53.389,40.975,50.856,42.13z"/>
		</g>
	</g>
	<path d="M28.702,44.628c-0.237,0.048-0.464-0.071-0.507-0.273c-0.045-0.2,0.11-0.405,0.347-0.456
		c0.236-0.051,0.464,0.068,0.507,0.27C29.093,44.368,28.936,44.575,28.702,44.628z"/>
	<path d="M39.072,44.628c-0.237,0.048-0.461-0.071-0.507-0.273c-0.044-0.2,0.111-0.405,0.348-0.456
		c0.236-0.051,0.463,0.068,0.506,0.27C39.464,44.368,39.308,44.575,39.072,44.628z"/>
	<path d="M49.441,44.628c-0.237,0.048-0.463-0.071-0.508-0.273c-0.044-0.2,0.112-0.405,0.348-0.456
		c0.236-0.051,0.465,0.068,0.506,0.27C49.832,44.368,49.676,44.575,49.441,44.628z"/>
	<g>
		<polygon points="57.435,26.227 39.694,18.47 21.91,26.249 21.91,27.594 57.435,27.594 		"/>
	</g>
	<circle cx="69.312" cy="20.684" r="1.561"/>
	<circle cx="10.216" cy="20.677" r="1.56"/>
	<path d="M6.156,38.001c0.8,0.137,2.29,0.394,2.697,0.663c0.154,0.089,0.25,0.37,0.24,0.716l-0.007,0.346
		c0.014,0.039,0.268,0.146,0.268,0.146l0.171-0.079c0.013-0.032,0.126-1.521,0.126-1.521l0.21-1.601
		c-0.003-0.033-0.186-0.167-0.186-0.167l-0.232,0.024c-0.025,0.036-0.09,0.385-0.09,0.385C9.29,37.25,9.17,37.467,9.016,37.527
		c-0.217,0.082-0.899,0.108-2.886-0.235l-1.615-0.28c-1.68-0.29-3.598-1.115-3.205-3.391c0.145-0.836,0.475-1.424,1.008-1.801
		c0.694-0.489,1.73-0.604,3.172-0.355l3.034,0.525c1.458,0.253,1.614,0.307,1.506,1.095l-0.05,0.341
		c0.026,0.087,0.091,0.126,0.182,0.141c0.09,0.013,0.205-0.003,0.255-0.067c0.011-0.024,0.362-1.766,0.362-1.766l0.436-1.741
		c-0.02-0.103-0.108-0.151-0.187-0.172c-0.098-0.028-0.186-0.017-0.233,0.034c-0.013,0.022-0.121,0.37-0.121,0.37
		c-0.235,0.751-0.439,0.763-1.931,0.503l-3.318-0.571c-1.68-0.291-2.775-0.127-3.549,0.532c-0.627,0.52-1.046,1.37-1.244,2.524
		c-0.19,1.092,0.029,2.205,0.572,2.904c0.601,0.796,1.653,1.315,3.219,1.585L6.156,38.001z"/>
	<path d="M11.086,52.039c0.084,0.017,0.271,0.2,0.51,0.659l0.093,0.185c0.098,0.063,0.203,0.064,0.291,0.023
		c0.075-0.032,0.125-0.089,0.141-0.156c-0.002-0.034-0.527-1.431-0.527-1.431l-0.515-1.615c-0.055-0.076-0.138-0.104-0.233-0.093
		c-0.102,0.018-0.188,0.076-0.218,0.15c-0.003,0.032,0.049,0.271,0.049,0.271c0.107,0.51,0.117,0.77,0.03,0.875
		c-0.208,0.243-1.175,0.604-2.718,1.018l-2.945,0.79c-0.253,0.067-0.49,0.133-0.556,0.104c0.047,0.002,1.897-2.885,1.897-2.885
		c0-0.001,1.145-1.741,1.145-1.741l0.168-0.252c0.498-0.746,1.666-2.493,2.238-2.895c0-0.003,0-0.004,0-0.007
		c0.008-0.092-0.159-0.672-0.159-0.672c-0.001-0.005-0.295-1.554-0.295-1.554c-0.053-0.075-0.121-0.101-0.2-0.096
		c-0.104,0.009-0.21,0.064-0.258,0.139c-0.008,0.034,0.015,0.274,0.015,0.274c0.024,0.271,0.018,0.649-0.143,0.903
		c-0.241,0.346-0.505,0.435-0.909,0.543l-4.015,1.062l-0.219,0.058c-0.74,0.201-2.117,0.578-2.599,0.523
		c-0.14-0.021-0.273-0.202-0.364-0.489c0-0.001-0.121-0.359-0.121-0.359c-0.023-0.03-0.255-0.043-0.255-0.043L0.22,45.486
		c-0.001,0.037,0.339,1.446,0.339,1.446l0.296,1.612c0.018,0.032,0.209,0.085,0.209,0.085l0.247-0.124
		c0.001-0.004,0.001-0.005,0.001-0.008c0.007-0.074-0.037-0.47-0.037-0.47c-0.021-0.152-0.023-0.285-0.014-0.401
		c0.015-0.148,0.053-0.257,0.118-0.322c0.405-0.353,2.532-0.931,2.772-0.995l3.001-0.805c0.301-0.079,0.612-0.15,0.815-0.156
		c-0.081,0.115-1.385,2.026-1.385,2.026l-2.777,4.169c-1.086,1.628-1.426,2.101-1.604,2.313c0.031,0.205,0.132,0.302,0.262,0.312
		c0.244-0.091,1.034-0.316,2.369-0.676l3.486-0.936C8.991,52.375,10.568,51.947,11.086,52.039z"/>
	<path d="M14.005,55.738c-0.09-0.059-0.197-0.024-0.272,0.021c-0.042,0.023-0.14,0.092-0.139,0.186
		c0.007,0.025,0.185,0.336,0.185,0.336c0.39,0.688,0.247,0.824-0.998,1.676l-4.187,2.866c-1.232,0.844-1.386,0.916-1.912,0.313
		l-0.236-0.269c-0.125-0.035-0.226,0.021-0.287,0.083c-0.064,0.058-0.096,0.129-0.087,0.184c0.011,0.025,1.058,1.484,1.058,1.484
		l0.961,1.479c0.093,0.058,0.2,0.023,0.275-0.021c0.042-0.025,0.139-0.094,0.139-0.186c-0.006-0.022-0.173-0.341-0.173-0.341
		c-0.37-0.711-0.247-0.826,0.984-1.67l4.188-2.865c1.245-0.854,1.423-0.939,1.922-0.326l0.226,0.28
		c0.108,0.048,0.206-0.016,0.246-0.044c0.067-0.054,0.141-0.144,0.131-0.226c-0.011-0.023-1.044-1.455-1.044-1.455L14.005,55.738z"
		/>
	<path d="M25.846,67.051c0.038-0.072,0.046-0.142,0.021-0.194c-0.022-0.025-1.168-0.745-1.168-0.745l-1.174-0.847
		c-0.105-0.019-0.193,0.026-0.257,0.104c-0.046,0.052-0.072,0.112-0.076,0.168c0,0.021,0,0.041,0.005,0.062
		c0.018,0.026,0.208,0.19,0.208,0.19c0.276,0.238,0.365,0.393,0.36,0.468c0,0.014-0.004,0.023-0.011,0.033l-0.43,0.372l-2.981,1.707
		c0,0-2.462,1.394-2.98,1.688c0.062-0.235,1.305-5.023,1.305-5.023c0.304-1.132,0.581-1.904,0.644-2.035
		c0.039-0.033,0.149-0.047,0.599,0.244l0.183,0.116c0.104,0.009,0.177-0.039,0.229-0.116c0.054-0.082,0.071-0.179,0.043-0.25
		c-0.017-0.026-1.372-1.112-1.372-1.112l-1.111-0.992c-0.107-0.024-0.189,0.009-0.251,0.071c-0.065,0.07-0.094,0.158-0.078,0.244
		c0.014,0.028,0.195,0.216,0.195,0.216c0.405,0.431,0.399,0.784,0.174,1.624l-1.757,6.529c-0.156,0.633-0.381,1.324-0.617,1.9
		c0.002,0.049,0.161,0.229,0.161,0.229c0.001,0,0.18,0.069,0.18,0.069c0.705-0.479,2.264-1.406,3.457-2.081l1.672-0.932
		c1.469-0.821,2.698-1.433,3.358-1.73c0.341-0.146,0.597-0.146,0.855-0.002l0.365,0.208C25.723,67.225,25.807,67.13,25.846,67.051z"
		/>
	<path d="M34.693,69.744l-0.05-0.005c-0.167-0.01-0.971-0.26-1.825-0.523c-0.011-0.003-2.571-0.796-2.571-0.796l-1.592-0.536
		c-0.107,0.011-0.17,0.103-0.201,0.187c-0.019,0.045-0.05,0.16,0.006,0.231c0.02,0.015,0.231,0.109,0.231,0.109
		c0.729,0.327,0.706,0.493,0.271,1.905l-1.521,4.902c-0.442,1.433-0.564,1.565-1.306,1.401c0,0.002-0.46-0.097-0.46-0.097
		c-0.123,0.049-0.164,0.155-0.177,0.24c-0.012,0.088,0.005,0.161,0.048,0.203c0.024,0.013,1.887,0.545,1.887,0.545l1.227,0.378
		l3.634,1.173c0.355-0.337,1.021-1.282,1.265-1.73c-0.002-0.109-0.054-0.186-0.133-0.235c-0.078-0.051-0.17-0.067-0.244-0.045
		c-0.549,0.567-1.078,0.959-1.369,1.023c-0.346,0.056-0.779-0.025-1.78-0.335c-1.21-0.375-1.416-0.609-1.517-0.797
		c-0.136-0.275-0.037-0.745,0.183-1.454l0.594-1.919c0.098-0.312,0.102-0.314,0.497-0.191l0.787,0.244
		c0.495,0.153,0.838,0.272,1.012,0.385c0.239,0.146,0.257,0.372,0.239,0.6l-0.043,0.568c0.042,0.112,0.15,0.162,0.233,0.181
		c0.092,0.019,0.171,0.003,0.219-0.042c0.014-0.023,0.149-0.533,0.149-0.533l0.217-0.812l0.288-0.824l0.19-0.534
		c-0.012-0.095-0.069-0.15-0.156-0.185c-0.077-0.033-0.196-0.054-0.275-0.002c-0.019,0.019-0.3,0.545-0.3,0.545
		c-0.174,0.317-0.282,0.342-0.429,0.347c-0.166,0.002-0.58-0.094-1.164-0.273l-0.791-0.244c-0.396-0.126-0.396-0.126-0.294-0.455
		l0.844-2.721c0.079-0.256,0.123-0.396,0.188-0.432c0.05-0.027,0.139-0.007,0.319,0.048l0.979,0.307
		c0.601,0.184,1.024,0.33,1.284,0.484c0.603,0.366,0.604,0.834,0.607,1.485v0.082c0.029,0.081,0.096,0.128,0.186,0.151
		c0.076,0.019,0.187,0.023,0.253-0.029c0.02-0.034,0.059-0.219,0.059-0.219c0.133-0.619,0.313-1.468,0.304-1.706L34.693,69.744z"/>
	<path d="M48.931,78.415c-0.372,0.017-0.761-0.077-1.034-0.261c-1.087-0.696-2.016-1.793-3.312-3.389
		c-0.099-0.118-0.1-0.196-0.068-0.246c0.386-0.193,1.683-1.006,1.526-2.58c-0.114-1.162-0.828-1.684-1.409-1.915
		c-0.636-0.271-1.374-0.229-2.177-0.185l-0.235,0.013c-1.29,0.065-2.282,0.155-3.129,0.276c-0.08,0.043-0.117,0.114-0.117,0.205
		c-0.001,0.09,0.032,0.202,0.115,0.256c0.026,0.009,0.482,0.045,0.482,0.045c0.52,0.039,0.594,0.2,0.726,1.602l0.494,5.135
		c0.149,1.521,0.119,1.601-0.63,1.731l-0.352,0.062c-0.092,0.102-0.089,0.213-0.066,0.294c0.021,0.083,0.066,0.143,0.119,0.166
		c0.029,0.004,1.793-0.131,1.793-0.131l1.688-0.045c0.099-0.051,0.112-0.158,0.114-0.203c0.007-0.089-0.016-0.202-0.088-0.259
		c-0.027-0.009-0.329-0.036-0.329-0.036c-0.793-0.067-0.828-0.207-0.974-1.706l-0.177-1.787c-0.027-0.254-0.027-0.254,0.583-0.315
		c0.55-0.056,0.802,0.072,1.045,0.345l1.682,1.95c1.136,1.243,1.865,1.594,3.155,1.434l0.629-0.156
		c0.063-0.058,0.076-0.126,0.06-0.188C49.025,78.47,48.98,78.428,48.931,78.415z M42.772,74.573
		c-0.716,0.069-0.909,0.058-0.941,0.034c-0.031-0.031-0.052-0.212-0.07-0.425l-0.325-3.324c-0.015-0.163-0.015-0.252,0.031-0.307
		c0.079-0.088,0.326-0.119,0.785-0.142c1.649-0.084,2.365,0.877,2.435,1.879c0.054,0.796-0.091,1.379-0.521,1.785
		C43.781,74.432,43.22,74.525,42.772,74.573z"/>
	<path d="M55.114,70.548l-1.341-0.045c-0.937-0.044-1.57-0.34-1.884-0.877c-0.103-0.176-0.233-0.465-0.244-0.801
		c-0.011-0.427,0.18-0.93,0.896-1.344c1.116-0.652,1.877-0.124,2.418,0.409c0.078,0.034,0.148,0.019,0.222-0.03
		c0.077-0.048,0.152-0.136,0.155-0.221c-0.32-0.574-0.842-1.198-1.114-1.421c-0.062-0.007-0.524,0.166-0.524,0.166
		c-0.378,0.088-0.859,0.283-1.25,0.512c-1.532,0.888-2.055,2.359-1.301,3.655c0.604,1.048,1.753,1.325,2.605,1.375l1.615,0.083
		c1.197,0.053,1.652,0.566,1.969,1.108c0.218,0.378,0.283,0.796,0.18,1.185c-0.111,0.419-0.416,0.785-0.879,1.056
		c-1.276,0.74-2.398,0.083-3.119-0.599c-0.063-0.034-0.13-0.027-0.197,0.01c-0.078,0.044-0.159,0.131-0.171,0.234
		c0.354,0.575,1.034,1.386,1.362,1.585c0.427,0.006,1.246-0.081,2.24-0.661c0.856-0.497,1.419-1.163,1.619-1.927
		c0.062-0.226,0.087-0.455,0.081-0.685c-0.011-0.429-0.138-0.856-0.378-1.269C57.513,71.078,56.546,70.588,55.114,70.548z"/>
	<path d="M67.34,68.065c-0.026,0.01-0.317,0.216-0.317,0.216c-0.657,0.465-0.771,0.372-1.784-0.753l-3.394-3.776
		c-1.008-1.119-1.118-1.285-0.577-1.861l0.249-0.258c0.034-0.113-0.045-0.204-0.078-0.24c-0.065-0.059-0.161-0.116-0.238-0.099
		c-0.023,0.017-1.309,1.229-1.309,1.229l-1.36,1.166c-0.048,0.098,0,0.196,0.056,0.268c0.03,0.038,0.11,0.126,0.206,0.115
		c0.022-0.012,0.308-0.229,0.308-0.229c0.631-0.477,0.784-0.352,1.793,0.769l3.392,3.771c1,1.113,1.092,1.255,0.562,1.857
		l-0.234,0.269c-0.018,0.128,0.051,0.22,0.119,0.274c0.068,0.053,0.142,0.076,0.196,0.061c0.025-0.012,1.327-1.244,1.327-1.244
		L67.6,68.45c0.045-0.102-0.005-0.2-0.059-0.269C67.513,68.141,67.431,68.053,67.34,68.065z"/>
	<path d="M74.728,57.984c-0.02,0.019-0.284,0.393-0.284,0.393c-0.459,0.637-0.616,0.576-1.897-0.157l-5.508-3.154
		c-0.207-0.114-0.302-0.173-0.318-0.225c-0.016-0.049,0.038-0.146,0.123-0.298l0.505-0.877c0.386-0.675,0.746-1.079,1.104-1.235
		c0.166-0.075,0.547,0,1.037,0.208c0.119-0.012,0.194-0.103,0.229-0.187c0.037-0.085,0.037-0.172-0.003-0.23
		c-0.413-0.193-1.351-0.842-1.782-1.271c-0.14-0.021-0.244,0.148-0.26,0.232c0.208,0.377,0.192,0.468-0.197,1.143l-2.866,5.009
		c-0.362,0.637-0.555,0.938-0.921,0.81c-0.123,0.022-0.212,0.221-0.207,0.292c0.466,0.407,1.146,1.04,1.588,1.559
		c0.121,0.023,0.219-0.021,0.284-0.094c0.063-0.065,0.093-0.146,0.083-0.223c-0.229-0.319-0.434-0.597-0.536-1.052
		c-0.099-0.431,0.225-1.081,0.556-1.658l0.391-0.678c0.087-0.157,0.146-0.253,0.199-0.27c0.056-0.014,0.16,0.044,0.331,0.146
		l5.531,3.162c1.301,0.745,1.401,0.894,1.084,1.581l-0.217,0.468c-0.001,0.104,0.056,0.183,0.152,0.231
		c0.067,0.034,0.172,0.058,0.238,0.015c0.017-0.02,0.961-1.761,0.961-1.761l0.965-1.595c0.013-0.11-0.062-0.189-0.138-0.236
		C74.913,58.003,74.808,57.943,74.728,57.984z"/>
	<path d="M77.58,42.539c-0.039,0.082-0.045,0.178-0.014,0.246c0.621,0.482,1.072,0.965,1.163,1.25
		c0.094,0.333,0.063,0.775-0.134,1.8c-0.24,1.248-0.451,1.48-0.627,1.6c-0.259,0.163-0.735,0.117-1.462-0.023l-1.976-0.379
		l-0.267-0.098c-0.036-0.053-0.018-0.179,0.02-0.372l0.158-0.812c0.093-0.489,0.176-0.855,0.271-1.049
		c0.116-0.256,0.345-0.295,0.569-0.302l0.571-0.021c0.106-0.051,0.145-0.166,0.153-0.251c0.009-0.092-0.015-0.169-0.065-0.212
		c-0.024-0.014-0.544-0.089-0.544-0.089l-0.835-0.125l-0.854-0.198l-0.55-0.129c-0.091,0.021-0.14,0.086-0.167,0.177
		c-0.023,0.081-0.027,0.201,0.03,0.273c0.021,0.015,0.574,0.24,0.574,0.24c0.334,0.134,0.372,0.238,0.392,0.383
		c0.021,0.167-0.033,0.601-0.146,1.189l-0.154,0.814c-0.078,0.405-0.078,0.405-0.419,0.341l-2.797-0.54
		c-0.505-0.097-0.505-0.097-0.438-0.462l0.196-1.007c0.116-0.615,0.215-1.054,0.338-1.328c0.295-0.637,0.761-0.69,1.401-0.767
		l0.09-0.011c0.077-0.038,0.117-0.107,0.13-0.2c0.011-0.078,0.002-0.188-0.058-0.249c-0.034-0.018-0.229-0.035-0.229-0.035
		c-0.626-0.063-1.487-0.151-1.721-0.111l-0.051,0.006l0.002,0.051c0.012,0.165-0.146,0.972-0.31,1.83
		c-0.01,0.053-0.517,2.683-0.517,2.683l-0.36,1.642c0.023,0.106,0.123,0.158,0.211,0.179c0.046,0.014,0.164,0.034,0.229-0.03
		C69.4,48.42,69.469,48.2,69.469,48.2c0.24-0.762,0.411-0.756,1.865-0.478l5.038,0.968c1.472,0.284,1.615,0.391,1.538,1.145
		l-0.047,0.473c0.062,0.115,0.176,0.144,0.259,0.144c0.089,0.006,0.16-0.021,0.195-0.066c0.011-0.026,0.335-1.937,0.335-1.937
		l0.241-1.258l0.762-3.742c-0.368-0.315-1.38-0.873-1.855-1.068C77.688,42.394,77.622,42.454,77.58,42.539z"/>
	<path d="M78.81,31.964l-0.309-1.842c-0.061-0.089-0.171-0.1-0.258-0.089c-0.048,0.006-0.166,0.031-0.201,0.116
		c-0.006,0.027,0.036,0.484,0.036,0.484c0.066,0.779-0.091,0.836-1.543,1.113l-6.244,1.189c-0.423,0.081-0.423,0.081-0.5-0.272
		l-0.214-0.991c-0.164-0.759-0.166-1.3-0.004-1.651c0.077-0.167,0.406-0.354,0.908-0.514c0.084-0.09,0.078-0.208,0.052-0.286
		c-0.029-0.092-0.089-0.158-0.157-0.177c-0.44,0.121-1.575,0.238-2.182,0.194c-0.123,0.076-0.084,0.271-0.036,0.344
		c0.402,0.15,0.453,0.232,0.618,0.995l1.223,5.653c0.153,0.72,0.214,1.066-0.146,1.206c-0.076,0.101-0.011,0.308,0.043,0.357
		c0.613,0.006,1.542,0.044,2.225,0.148c0.108-0.06,0.148-0.152,0.152-0.249c0.007-0.093-0.026-0.176-0.088-0.228
		c-0.385-0.095-0.724-0.17-1.103-0.448c-0.365-0.265-0.558-0.966-0.699-1.617l-0.167-0.769c-0.036-0.174-0.058-0.285-0.027-0.331
		c0.03-0.048,0.147-0.07,0.342-0.107l6.245-1.191c1.473-0.28,1.645-0.233,1.852,0.496l0.138,0.496
		c0.07,0.084,0.161,0.103,0.27,0.076c0.075-0.017,0.165-0.065,0.186-0.142C79.221,33.899,78.81,31.964,78.81,31.964z"/>
	<path d="M13.585,11.097c0.027-0.01,0.317-0.208,0.317-0.208c0.633-0.426,0.722-0.379,1.581,0.819l2.01,2.714
		c1.007,1.375,1.908,2.018,2.924,2.08c0.797,0.063,1.628-0.232,2.624-0.926c0.925-0.646,1.485-1.452,1.617-2.328
		c0.159-0.986-0.195-2.106-1.079-3.422L22.68,8.486c-0.211-0.315-1.272-1.917-1.366-2.48c-0.038-0.167,0.115-0.4,0.388-0.596
		l0.275-0.2C22,5.172,21.914,4.93,21.914,4.93l-0.187-0.091c-0.031,0.009-1.274,0.81-1.274,0.81l-1.398,0.793
		c-0.024,0.027-0.01,0.227-0.01,0.227l0.189,0.175c0.04-0.001,0.359-0.16,0.359-0.16c0.313-0.157,0.563-0.196,0.723-0.114
		c0.389,0.202,1.131,1.319,1.623,2.058l1.077,1.606c0.616,0.917,0.945,1.723,0.985,2.427c0.05,0.864-0.333,1.576-1.151,2.146
		c-1.598,1.117-2.983,0.693-4.495-1.372l-1.829-2.483l-0.05-0.07c-0.82-1.142-0.905-1.261-0.361-1.788l0.245-0.237
		c0.034-0.088,0.006-0.175-0.064-0.252c-0.027-0.029-0.119-0.122-0.211-0.104c-0.027,0.012-1.342,1.136-1.342,1.136l-1.377,1.061
		c-0.05,0.096-0.013,0.207,0.041,0.285C13.46,11.058,13.524,11.101,13.585,11.097z"/>
	<path d="M27.711,2.478c0.832-0.058,0.965,0.057,1.083,0.93l0.373,3.12L29.42,9.42l0.035,0.44c0.08,0.978-0.103,1.099-0.641,1.305
		c0,0-0.302,0.121-0.302,0.121c-0.063,0.068-0.075,0.146-0.057,0.232c0.021,0.094,0.075,0.177,0.139,0.207
		c0.042,0.004,1.462-0.404,1.462-0.404l1.561-0.359c0.078-0.05,0.107-0.131,0.1-0.226c-0.006-0.08-0.043-0.184-0.13-0.228
		c-0.035-0.005-0.576,0.091-0.576,0.091c-0.208,0.038-0.339,0.026-0.431-0.039c-0.169-0.117-0.256-0.458-0.355-1.045L29.8,6.365
		l-0.036-0.307c0,0-0.231-2.069-0.264-2.358c0.139,0.209,0.672,1.003,0.672,1.003l0.478,0.734l1.724,2.499l0.246,0.352
		c0.461,0.661,1.158,1.658,1.461,2.246c0.062,0.071,0.164,0.069,0.194,0.064c0.085-0.016,0.146-0.053,0.173-0.114
		c0.138-0.655,0.521-2.01,0.978-3.465l0.838-2.671l0.286-0.947c0,0,0.204-0.66,0.27-0.88c0.059,0.312,1.052,5.715,1.052,5.715
		c0.051,0.307,0.087,0.531,0.092,0.695c0.007,0.328-0.121,0.428-0.535,0.502l-0.402,0.073c-0.034,0.02-0.073,0.238-0.073,0.238
		l0.142,0.218c0.033,0.006,1.728-0.159,1.728-0.159l1.667-0.077c0.079-0.047,0.107-0.109,0.111-0.189
		c0.001-0.089-0.03-0.206-0.109-0.268c-0.032-0.012-0.49-0.022-0.49-0.022c-0.597-0.021-0.662-0.314-0.807-0.957l-0.022-0.104
		l-1.236-6.126c-0.176-0.96-0.13-1.201,0.717-1.361l0.291-0.049c0.085-0.073,0.075-0.184,0.066-0.229
		c-0.005-0.04-0.034-0.18-0.123-0.23c-0.033-0.006-1.279,0.126-1.279,0.126l-1.117,0.037l0.003,0.06
		c0.009,0.062,0.012,0.126,0.015,0.193c0.014,0.634-0.248,1.474-0.624,2.685l-0.942,3.158c0,0-0.645,2.018-0.649,2.032
		c-0.007-0.102-1.045-1.506-1.045-1.506l-0.185-0.258v0l-2.151-3.068c-0.498-0.669-1.072-1.511-1.11-2.099l-0.005-0.066
		l-1.192,0.324c-0.028,0.006-1.141,0.224-1.141,0.224c-0.082,0.057-0.116,0.135-0.113,0.227c0,0.097,0.034,0.186,0.091,0.232
		C27.482,2.502,27.709,2.478,27.711,2.478z"/>
	<path d="M45.568,10.396l1.244,0.315c0.002,0,3.692,0.976,3.692,0.976c0.34-0.352,0.951-1.33,1.174-1.793
		c-0.011-0.112-0.066-0.185-0.147-0.229c-0.081-0.048-0.174-0.058-0.246-0.031c-0.521,0.592-1.024,1.014-1.312,1.09
		c-0.343,0.075-0.777,0.018-1.795-0.241c-1.228-0.309-1.446-0.531-1.557-0.713C46.47,9.5,46.546,9.03,46.726,8.311l0.495-1.949
		l0.111-0.26c0.058-0.035,0.179-0.006,0.371,0.042l0.804,0.201c0.503,0.129,0.853,0.229,1.031,0.334
		c0.246,0.132,0.274,0.359,0.268,0.583c0,0.001-0.014,0.571-0.014,0.571C49.839,7.942,49.95,7.987,50.031,8
		c0.095,0.016,0.175-0.004,0.22-0.051c0.013-0.025,0.118-0.54,0.118-0.54l0.174-0.823l0.249-0.841l0.161-0.542
		c-0.02-0.092-0.082-0.147-0.171-0.177c-0.08-0.028-0.198-0.041-0.272,0.015C50.494,5.063,50.238,5.6,50.238,5.6
		c-0.154,0.326-0.263,0.358-0.408,0.368c-0.167,0.014-0.585-0.062-1.179-0.212l-0.801-0.202c-0.405-0.103-0.405-0.103-0.317-0.436
		l0.697-2.763c0.065-0.26,0.102-0.402,0.165-0.441c0.049-0.03,0.141-0.014,0.322,0.033l0.995,0.25
		c0.608,0.154,1.039,0.278,1.306,0.418c0.619,0.331,0.646,0.797,0.685,1.443l0.006,0.089c0.034,0.078,0.104,0.124,0.195,0.142
		c0.074,0.015,0.186,0.013,0.25-0.044c0.017-0.033,0.049-0.227,0.049-0.227c0.099-0.623,0.235-1.475,0.214-1.714l-0.006-0.049h-0.05
		c-0.166,0-0.977-0.203-1.83-0.42c-0.033-0.007-2.632-0.665-2.632-0.665l-1.614-0.454c-0.107,0.017-0.165,0.112-0.189,0.196
		c-0.018,0.047-0.044,0.164,0.015,0.233c0.021,0.013,0.237,0.096,0.237,0.096c0.748,0.287,0.731,0.454,0.369,1.89l-1.258,4.976
		c-0.367,1.453-0.48,1.59-1.229,1.469L43.76,9.503c-0.117,0.055-0.151,0.164-0.16,0.248c-0.008,0.089,0.016,0.162,0.06,0.2
		C43.683,9.962,45.568,10.396,45.568,10.396z"/>
	<g>
		<path d="M63.771,5.861c-0.688-0.486-1.534-0.298-1.947,0.283c-0.318,0.454-0.317,1.081,0.024,1.565L61.05,8.266
			c0,0-3.406,2.305-3.406,2.305c0.102,0.007-2.768,1.822-1.934,1.273l-0.924,0.606c-0.39,0.269-0.719,0.311-1.067,0.133L53.3,12.375
			c-0.104,0.003-0.171,0.061-0.22,0.147c-0.04,0.067-0.07,0.164-0.038,0.236c0.022,0.026,0.319,0.191,0.319,0.191l0.873,0.507
			l0.406,0.262l0.811,0.539c0.107,0.022,0.193-0.019,0.255-0.099c0.066-0.079,0.086-0.175,0.061-0.248
			c-0.02-0.024-0.389-0.303-0.389-0.303c-0.264-0.199-0.24-0.274-0.17-0.376c0.089-0.129,0.407-0.401,0.939-0.81l0.97-0.659
			c0.229-0.168,0.292-0.164,0.576,0.034l1.92,1.349c0.338,0.239,0.343,0.284,0.25,0.566c0,0-0.456,1.587-0.456,1.587
			c-0.093,0.295-0.188,0.585-0.284,0.718c-0.056,0.08-0.228,0.038-0.462-0.114l-0.349-0.223c-0.102-0.011-0.18,0.037-0.229,0.116
			c-0.056,0.088-0.073,0.19-0.038,0.264c0.019,0.02,0.27,0.205,0.27,0.205l1.049,0.8l1.316,1.11
			c0.118,0.011,0.197-0.063,0.241-0.125c0.055-0.079,0.076-0.159,0.055-0.226c-0.014-0.023-0.288-0.298-0.288-0.298
			c-0.421-0.426-0.431-0.717-0.056-1.939c0.002,0,1.713-5.814,1.713-5.814l0.208-0.711l0.227-0.754
			c0.541,0.109,1.077-0.099,1.376-0.521C64.567,7.207,64.457,6.345,63.771,5.861z M61.103,9.674l-0.824,2.66
			c-0.037,0.13-0.085,0.271-0.137,0.29c-0.054,0.018-0.17-0.055-0.287-0.139l-1.593-1.118c-0.103-0.072-0.229-0.162-0.229-0.2v0
			c0-0.034,0.108-0.111,0.182-0.164c0.002,0,2.434-1.716,2.434-1.716s0.504-0.32,0.681-0.433
			C61.283,9.004,61.103,9.674,61.103,9.674z M63.607,7.402c-0.296,0.419-0.765,0.542-1.128,0.285
			c-0.35-0.245-0.403-0.737-0.106-1.156c0.287-0.408,0.775-0.533,1.126-0.286C63.859,6.5,63.894,6.995,63.607,7.402z"/>
	</g>
</g>
</svg>
